# xmcd CD database file
#
# Track frame offsets:
#	182
#	13422
#	28255
#	43360
#	56585
#	69655
#	82035
#	95442
#	108167
#	120392
#	132150
#	146930
#	160815
#	173107
#
# Disc length: 2507 seconds
#
# Revision: 0
# Processed by: cddbd v1.5.1PL0 Copyright (c) Steve Scherf et al.
# Submitted via: CDex 1.51
#
DISCID=c909c90e
DTITLE=Stan Getz - Quartets
DYEAR=1949
DGENRE=Jazz
TTITLE0=There's A Small Hotel
TTITLE1=I've Got You Under My Skin
TTITLE2=What's New?
TTITLE3=Too Marelous For Words
TTITLE4=You Stepped Out Of A Dream
TTITLE5=My Old Flame
TTITLE6=My Old Flame (Alternate Take)
TTITLE7=Long Island Sound
TTITLE8=Indian Summer
TTITLE9=Mar-CIA
TTITLE10=Crazy Chords
TTITLE11=The Lady In Red
TTITLE12=The Lady In Red (Alternate Take)
TTITLE13=Wrap Your Troubles In Dreams (And Dream...)
EXTD=YEAR: 1949
EXTT0=
EXTT1=
EXTT2=
EXTT3=
EXTT4=
EXTT5=
EXTT6=
EXTT7=
EXTT8=
EXTT9=
EXTT10=
EXTT11=
EXTT12=
EXTT13=
PLAYORDER=
